HIERARCHY
ROOT Hips
{
	OFFSET 0.000000 83.214638 0.000000
	CHANNELS 6 Xposition Yposition Zposition Xrotation Yrotation Zrotation
	JOINT Pelvis
	{
		OFFSET 0.000000 0.000000 0.000000
		CHANNELS 3 Xrotation Yrotation Zrotation
		JOINT LeftUpLeg
		{
			OFFSET 8.479700 -4.795502 -0.379100
			CHANNELS 3 Xrotation Yrotation Zrotation
			JOINT LeftLeg
			{
				OFFSET 0.024144 -32.555107 0.112900
				CHANNELS 3 Xrotation Yrotation Zrotation
				JOINT LeftFoot
				{
					OFFSET -0.024144 -32.638630 -3.012600
					CHANNELS 3 Xrotation Yrotation Zrotation
					JOINT LeftToeBase
					{
						OFFSET 0.970200 -13.225400 11.864200
						CHANNELS 3 Xrotation Yrotation Zrotation
						End Site
						{
							OFFSET 0.000000 12.319262 0.000000
						}
					}
					JOINT LFootTongue
					{
						OFFSET 1.142400 -1.059800 6.665200
						CHANNELS 3 Xrotation Yrotation Zrotation
						End Site
						{
							OFFSET 0.000000 12.319262 0.000000
						}
					}
				}
				JOINT LeftPantLeg
				{
					OFFSET 0.918482 -16.533964 -2.284700
					CHANNELS 3 Xrotation Yrotation Zrotation
					End Site
					{
						OFFSET 0.350399 24.744368 0.000000
					}
				}
			}
		}
		JOINT RightUpLeg
		{
			OFFSET -8.479700 -4.795502 -0.379100
			CHANNELS 3 Xrotation Yrotation Zrotation
			JOINT RightLeg
			{
				OFFSET -0.023144 -32.555092 0.112900
				CHANNELS 3 Xrotation Yrotation Zrotation
				JOINT RightFoot
				{
					OFFSET 0.023144 -32.638641 -3.012700
					CHANNELS 3 Xrotation Yrotation Zrotation
					JOINT RightToeBase
					{
						OFFSET -0.970200 -13.225400 11.864200
						CHANNELS 3 Xrotation Yrotation Zrotation
						End Site
						{
							OFFSET 0.000000 12.319244 0.000000
						}
					}
					JOINT RFootTongue
					{
						OFFSET -1.142200 -1.059800 6.665200
						CHANNELS 3 Xrotation Yrotation Zrotation
						End Site
						{
							OFFSET 0.000000 12.319243 0.000000
						}
					}
				}
				JOINT RightPantLeg
				{
					OFFSET -0.919482 -16.533978 -2.284800
					CHANNELS 3 Xrotation Yrotation Zrotation
					End Site
					{
						OFFSET -0.350400 24.744419 0.000000
					}
				}
			}
		}
	}
	JOINT Spine
	{
		OFFSET 0.000000 7.722000 1.166200
		CHANNELS 3 Xrotation Yrotation Zrotation
		JOINT Spine1
		{
			OFFSET 0.000000 12.024101 0.248800
			CHANNELS 3 Xrotation Yrotation Zrotation
			JOINT Spine2
			{
				OFFSET 0.000000 11.502998 -0.491200
				CHANNELS 3 Xrotation Yrotation Zrotation
				JOINT Neck
				{
					OFFSET 0.000000 18.430702 -3.123100
					CHANNELS 3 Xrotation Yrotation Zrotation
					JOINT Head
					{
						OFFSET 0.000000 9.051102 1.034000
						CHANNELS 3 Xrotation Yrotation Zrotation
						JOINT HairB
						{
							OFFSET 0.208400 24.786102 24.822300
							CHANNELS 3 Xrotation Yrotation Zrotation
							End Site
							{
								OFFSET 0.000000 32.263779 0.000000
							}
						}
						JOINT HairA
						{
							OFFSET -7.081100 24.428299 23.196600
							CHANNELS 3 Xrotation Yrotation Zrotation
							End Site
							{
								OFFSET 0.000000 32.263779 0.000000
							}
						}
						JOINT Hat
						{
							OFFSET 16.728800 15.048294 -15.439601
							CHANNELS 3 Xrotation Yrotation Zrotation
							End Site
							{
								OFFSET 0.000000 32.263779 0.000000
							}
						}
					}
				}
				JOINT LeftShoulder
				{
					OFFSET 6.197800 13.665199 -4.064700
					CHANNELS 3 Xrotation Yrotation Zrotation
					JOINT LeftArm
					{
						OFFSET 7.778100 -0.187103 -1.709300
						CHANNELS 3 Xrotation Yrotation Zrotation
						JOINT LeftForeArm
						{
							OFFSET 22.049376 0.000000 0.000000
							CHANNELS 3 Xrotation Yrotation Zrotation
							JOINT LeftHand
							{
								OFFSET 23.009392 0.000000 0.000000
								CHANNELS 3 Xrotation Yrotation Zrotation
								JOINT LeftHandThumb1
								{
									OFFSET 3.507191 -2.063065 3.133727
									CHANNELS 3 Xrotation Yrotation Zrotation
									JOINT LeftHandThumb2
									{
										OFFSET 3.101337 -1.790558 1.790558
										CHANNELS 3 Xrotation Yrotation Zrotation
										JOINT LeftHandThumb3
										{
											OFFSET 3.058640 -1.765907 1.765906
											CHANNELS 3 Xrotation Yrotation Zrotation
											End Site
											{
												OFFSET -0.415260 3.926476 -0.049563
											}
										}
									}
								}
								JOINT LeftHandIndex1
								{
									OFFSET 11.334419 -0.901459 3.706815
									CHANNELS 3 Xrotation Yrotation Zrotation
									JOINT LeftHandIndex2
									{
										OFFSET 3.283112 0.000000 0.000000
										CHANNELS 3 Xrotation Yrotation Zrotation
										JOINT LeftHandIndex3
										{
											OFFSET 3.323853 0.000000 0.000000
											CHANNELS 3 Xrotation Yrotation Zrotation
											End Site
											{
												OFFSET -1.135597 3.097809 0.402452
											}
										}
									}
								}
								JOINT LeftHandMiddle1
								{
									OFFSET 11.335861 0.000000 0.000000
									CHANNELS 3 Xrotation Yrotation Zrotation
									JOINT LeftHandMiddle2
									{
										OFFSET 3.410492 0.000000 0.000000
										CHANNELS 3 Xrotation Yrotation Zrotation
										JOINT LeftHandMiddle3
										{
											OFFSET 3.312172 0.000000 0.000000
											CHANNELS 3 Xrotation Yrotation Zrotation
											End Site
											{
												OFFSET -1.150200 3.080154 0.400270
											}
										}
									}
								}
								JOINT LeftHandRing1
								{
									OFFSET 11.514786 -0.013176 -3.003090
									CHANNELS 3 Xrotation Yrotation Zrotation
									JOINT LeftHandRing2
									{
										OFFSET 3.053307 0.000000 0.000000
										CHANNELS 3 Xrotation Yrotation Zrotation
										JOINT LeftHandRing3
										{
											OFFSET 3.295807 0.000000 0.000000
											CHANNELS 3 Xrotation Yrotation Zrotation
											End Site
											{
												OFFSET -1.281006 3.013344 0.375733
											}
										}
									}
								}
								JOINT LeftHandPinky1
								{
									OFFSET 10.518692 -0.960396 -5.730441
									CHANNELS 3 Xrotation Yrotation Zrotation
									JOINT LeftHandPinky2
									{
										OFFSET 2.861649 0.000000 0.000000
										CHANNELS 3 Xrotation Yrotation Zrotation
										JOINT LeftHandPinky3
										{
											OFFSET 2.863380 0.000000 0.000000
											CHANNELS 3 Xrotation Yrotation Zrotation
											End Site
											{
												OFFSET -0.843597 2.711159 0.369971
											}
										}
									}
								}
							}
							JOINT LSleeve
							{
								OFFSET 6.676277 -0.344902 -1.011730
								CHANNELS 3 Xrotation Yrotation Zrotation
								End Site
								{
									OFFSET 0.000000 14.885353 0.000000
								}
							}
						}
					}
				}
				JOINT RightShoulder
				{
					OFFSET -6.197800 13.665199 -4.064700
					CHANNELS 3 Xrotation Yrotation Zrotation
					JOINT RightArm
					{
						OFFSET -7.778100 -0.187103 -1.709300
						CHANNELS 3 Xrotation Yrotation Zrotation
						JOINT RightForeArm
						{
							OFFSET -22.049376 0.000000 0.000000
							CHANNELS 3 Xrotation Yrotation Zrotation
							JOINT RightHand
							{
								OFFSET -23.009392 0.000000 0.000000
								CHANNELS 3 Xrotation Yrotation Zrotation
								JOINT RightHandThumb1
								{
									OFFSET -3.507191 -2.063065 3.133727
									CHANNELS 3 Xrotation Yrotation Zrotation
									JOINT RightHandThumb2
									{
										OFFSET -3.101337 -1.790558 1.790558
										CHANNELS 3 Xrotation Yrotation Zrotation
										JOINT RightHandThumb3
										{
											OFFSET -3.058640 -1.765907 1.765906
											CHANNELS 3 Xrotation Yrotation Zrotation
											End Site
											{
												OFFSET 0.415260 3.926476 -0.049563
											}
										}
									}
								}
								JOINT RightHandIndex1
								{
									OFFSET -11.334419 -0.901459 3.706815
									CHANNELS 3 Xrotation Yrotation Zrotation
									JOINT RightHandIndex2
									{
										OFFSET -3.283112 0.000000 0.000000
										CHANNELS 3 Xrotation Yrotation Zrotation
										JOINT RightHandIndex3
										{
											OFFSET -3.323853 0.000000 0.000000
											CHANNELS 3 Xrotation Yrotation Zrotation
											End Site
											{
												OFFSET 1.135597 3.097809 0.402452
											}
										}
									}
								}
								JOINT RightHandMiddle1
								{
									OFFSET -11.335861 0.000000 0.000000
									CHANNELS 3 Xrotation Yrotation Zrotation
									JOINT RightHandMiddle2
									{
										OFFSET -3.410492 0.000000 0.000000
										CHANNELS 3 Xrotation Yrotation Zrotation
										JOINT RightHandMiddle3
										{
											OFFSET -3.312172 0.000000 0.000000
											CHANNELS 3 Xrotation Yrotation Zrotation
											End Site
											{
												OFFSET 1.150200 3.080154 0.400270
											}
										}
									}
								}
								JOINT RightHandRing1
								{
									OFFSET -11.514786 -0.013176 -3.003090
									CHANNELS 3 Xrotation Yrotation Zrotation
									JOINT RightHandRing2
									{
										OFFSET -3.053307 0.000000 0.000000
										CHANNELS 3 Xrotation Yrotation Zrotation
										JOINT RightHandRing3
										{
											OFFSET -3.295807 0.000000 0.000000
											CHANNELS 3 Xrotation Yrotation Zrotation
											End Site
											{
												OFFSET 1.281006 3.013344 0.375733
											}
										}
									}
								}
								JOINT RightHandPinky1
								{
									OFFSET -10.518692 -0.960396 -5.730441
									CHANNELS 3 Xrotation Yrotation Zrotation
									JOINT RightHandPinky2
									{
										OFFSET -2.861649 0.000000 0.000000
										CHANNELS 3 Xrotation Yrotation Zrotation
										JOINT RightHandPinky3
										{
											OFFSET -2.863380 0.000000 0.000000
											CHANNELS 3 Xrotation Yrotation Zrotation
											End Site
											{
												OFFSET 0.843597 2.711159 0.369971
											}
										}
									}
								}
							}
							JOINT RSleeve
							{
								OFFSET -6.676277 -0.344902 -1.011730
								CHANNELS 3 Xrotation Yrotation Zrotation
								End Site
								{
									OFFSET 0.000000 14.885353 0.000000
								}
							}
						}
					}
				}
				JOINT Backpack
				{
					OFFSET 0.000000 -2.471497 36.677502
					CHANNELS 3 Xrotation Yrotation Zrotation
					End Site
					{
						OFFSET 0.000000 20.427315 0.000000
					}
				}
				JOINT Hood
				{
					OFFSET 0.000000 18.754097 -10.431000
					CHANNELS 3 Xrotation Yrotation Zrotation
					JOINT Hood1
					{
						OFFSET 0.000000 -5.011002 -7.685901
						CHANNELS 3 Xrotation Yrotation Zrotation
						End Site
						{
							OFFSET 0.000000 9.175140 0.000000
						}
					}
				}
				JOINT LHoodieString
				{
					OFFSET 5.250500 16.397697 3.089900
					CHANNELS 3 Xrotation Yrotation Zrotation
					JOINT LHoodieString1
					{
						OFFSET 0.257700 -6.364304 3.694600
						CHANNELS 3 Xrotation Yrotation Zrotation
						JOINT LHoodieString2
						{
							OFFSET 0.000000 -9.643799 2.679100
							CHANNELS 3 Xrotation Yrotation Zrotation
							End Site
							{
								OFFSET 0.000000 10.009018 0.000000
							}
						}
					}
				}
				JOINT RHoodieString
				{
					OFFSET -5.250500 16.397697 3.089900
					CHANNELS 3 Xrotation Yrotation Zrotation
					JOINT RHoodieString1
					{
						OFFSET -0.257700 -6.364304 3.694600
						CHANNELS 3 Xrotation Yrotation Zrotation
						JOINT RHoodieString2
						{
							OFFSET 0.000000 -9.643799 2.679100
							CHANNELS 3 Xrotation Yrotation Zrotation
							End Site
							{
								OFFSET 0.000000 10.009018 0.000000
							}
						}
					}
				}
			}
			JOINT LBackpack_Strap
			{
				OFFSET 15.223200 -7.719803 -6.610900
				CHANNELS 3 Xrotation Yrotation Zrotation
				End Site
				{
					OFFSET 0.000000 16.040596 0.000000
				}
			}
			JOINT RBackpack_Strap
			{
				OFFSET -15.223000 -7.719803 -6.610900
				CHANNELS 3 Xrotation Yrotation Zrotation
				End Site
				{
					OFFSET 0.000000 16.040596 0.000000
				}
			}
		}
	}
	JOINT BoyFacialAnim_Joint
	{
		OFFSET 1.000000 -82.208099 -1.550900
		CHANNELS 3 Xrotation Yrotation Zrotation
		End Site
		{
			OFFSET 0.000000 30.012791 0.000000
		}
	}
}
MOTION
Frames: 4
Frame Time: 0.016667
-0.022833 116.594589 0.547331 -1.011746 1.597823 0.408903 0.000000 0.000000 -0.000000 -25.953151 8.937671 2.782209 42.953147 14.325810 1.449998 34.781864 1.770436 6.776950 0.000001 0.000000 -0.000002 0.000001 0.000000 -0.000001 -0.000001 -0.000001 -0.000000 -8.784528 -7.804817 -3.705168 25.857288 -19.847210 1.972654 46.217991 0.154356 0.546155 -0.000001 0.000000 -0.000001 -0.000001 0.000000 -0.000001 0.000001 0.000001 -0.000001 -2.805479 -0.052484 -0.089799 -5.611653 -0.102272 -0.620859 -5.611650 -0.102273 -0.620860 -27.780273 0.884575 -2.478857 -5.939972 -1.809258 2.604353 0.000004 -0.000000 -0.000000 0.000004 -0.000000 -0.000000 0.000004 -0.000000 -0.000000 7.248321 6.365627 32.385151 -52.895324 -36.819890 5.857846 -23.466869 -23.506888 1.478693 -3.826421 -2.003292 0.833594 -23.505087 8.724622 4.055171 -11.818383 8.158636 13.633635 -0.000000 -0.000000 -0.000001 -0.793892 -9.944870 -73.989862 -8.742868 -2.825249 -82.562336 0.000001 0.000001 -0.000005 -7.057114 -4.106583 -72.543986 -5.071191 -4.491865 -69.918434 0.000000 -0.000000 -0.000002 -10.868860 6.242597 -70.785649 -0.409527 -6.819464 -77.462446 -0.000001 0.000000 -0.000004 -15.058363 6.364040 -69.029088 0.828480 -8.182847 -68.648647 -0.000004 0.000001 -0.000000 -0.000000 0.000000 0.000001 2.277537 -6.651283 -36.122572 -64.303854 35.763892 7.685046 -24.527665 16.757150 0.686867 10.835002 10.092836 2.135993 -17.327309 6.468915 -26.575935 3.045296 -20.332853 1.155709 0.000001 -0.000000 -0.000002 -8.189417 4.700874 83.344311 -5.502026 0.854497 81.248925 -0.000001 -0.000000 0.000003 -13.105670 1.845245 86.654965 -5.617187 1.089111 83.764579 0.000002 0.000000 0.000002 -13.657533 -7.092680 77.657837 -0.194363 7.087298 77.421349 -0.000000 -0.000000 -0.000001 -17.941847 -11.668168 76.734853 1.092278 11.886536 73.232851 0.000004 -0.000001 0.000002 -0.000001 -0.000000 -0.000001 -0.000001 -0.000000 -0.000000 -0.000001 -0.000000 -0.000000 -0.000001 -0.000000 -0.000000 -0.000001 -0.000000 -0.000000 -0.000001 -0.000000 0.000000 0.000000 -0.000000 -0.000000 -0.000001 -0.000000 -0.000000 -0.000001 -0.000000 0.000000 0.000000 -0.000000 -0.000000 -0.000001 -0.000000 -0.000000 -0.000001 -0.000000 -0.000000 0.000000 0.000000 -0.000000 
0.195318 116.749626 0.335267 -0.858642 1.437246 0.404817 0.000000 0.000000 0.000000 -26.936845 8.766048 2.358095 44.259015 10.252819 1.243705 34.365769 1.550259 3.332917 -0.000002 0.000002 -0.000002 -0.000002 0.000002 -0.000002 -0.000003 0.000002 -0.000001 -10.636610 -7.739099 -5.039903 32.778276 -18.799425 3.111992 41.651440 0.650167 2.904138 0.000003 -0.000000 0.000002 0.000003 -0.000000 0.000002 -0.000001 0.000002 -0.000001 -2.727669 0.072982 -0.027563 -5.454583 0.132121 -0.464096 -5.454585 0.132120 -0.464096 -28.934860 1.054856 -3.177760 -5.198140 -1.919965 3.212581 -0.000002 -0.000000 -0.000000 -0.000002 -0.000000 -0.000000 -0.000002 -0.000000 -0.000000 7.446500 6.603386 32.450345 -54.448926 -35.183752 3.471668 -24.716310 -26.798662 2.385688 -2.089436 -0.267381 0.161406 -23.495535 8.735333 4.099165 -11.816007 8.165985 13.633310 0.000001 -0.000000 0.000000 -0.798112 -9.946860 -74.031396 -8.750719 -2.825437 -82.619744 0.000000 0.000001 -0.000002 -7.063493 -4.107390 -72.604310 -5.077530 -4.493783 -69.977296 -0.000000 0.000001 -0.000003 -10.882235 6.239450 -70.819001 -0.412545 -6.821505 -77.522859 0.000001 0.000001 -0.000002 -15.087335 6.354706 -69.042271 0.827790 -8.184428 -68.710924 0.000001 0.000003 0.000000 -0.000000 0.000000 -0.000000 2.388920 -6.364263 -35.754596 -64.004992 34.598207 7.322051 -24.670428 19.891089 0.003033 11.125946 8.673200 4.184484 -17.283787 6.418240 -26.304652 3.064551 -20.360348 1.166109 0.000000 -0.000001 0.000001 -8.185366 4.699017 83.315761 -5.510745 0.853748 81.338114 0.000000 0.000000 0.000000 -13.046127 1.831966 86.514379 -5.595995 1.089987 83.530529 -0.000002 0.000000 0.000003 -13.616061 -7.089714 77.376659 -0.170993 7.073169 77.042403 -0.000001 -0.000001 -0.000003 -17.831235 -11.644013 76.290863 1.111521 11.863438 72.805814 0.000001 -0.000001 -0.000002 0.000001 0.000000 0.000000 -0.000001 -0.000000 -0.000000 -0.000001 -0.000000 -0.000000 -0.000001 -0.000000 -0.000000 -0.000001 -0.000000 -0.000000 -0.000001 -0.000000 0.000000 0.000001 -0.000000 -0.000000 -0.000001 -0.000000 -0.000000 -0.000001 -0.000000 0.000000 0.000001 -0.000000 -0.000000 0.000000 -0.000000 -0.000000 0.000000 -0.000000 -0.000000 0.000000 0.000000 0.000000 
0.445537 116.929543 -0.039042 -0.598884 0.943771 0.347035 -0.000000 -0.000000 0.000000 -28.286848 8.522961 1.816828 46.376913 4.911432 0.920829 32.985005 1.830542 0.479327 0.000002 -0.000000 0.000000 0.000002 -0.000000 0.000000 -0.000002 0.000001 -0.000000 -12.573121 -7.644242 -6.380326 40.146749 -14.973851 4.221027 35.452268 1.201541 7.455557 -0.000002 -0.000000 -0.000001 -0.000002 -0.000000 -0.000001 0.000001 -0.000002 -0.000000 -2.641038 0.276556 0.075999 -5.279451 0.526127 -0.270102 -5.279448 0.526127 -0.270102 -29.410525 0.905853 -3.426294 -5.302068 -1.820671 3.677569 -0.000001 0.000000 -0.000000 -0.000001 0.000000 -0.000000 -0.000001 0.000000 -0.000000 7.870904 7.117305 32.582263 -57.915879 -34.418457 -0.704282 -26.183257 -29.980115 4.243773 1.291430 1.133871 -1.465710 -23.490598 8.740832 4.122856 -11.815330 8.169582 13.633538 0.000002 0.000001 -0.000001 -0.800599 -9.948085 -74.055732 -8.755205 -2.825488 -82.652625 0.000000 -0.000000 -0.000005 -7.067254 -4.108019 -72.638030 -5.081091 -4.494807 -70.010586 -0.000001 0.000000 -0.000002 -10.889699 6.237638 -70.837825 -0.414221 -6.822626 -77.556771 -0.000002 -0.000002 -0.000001 -15.103479 6.349298 -69.049661 0.827404 -8.185262 -68.745137 0.000002 0.000001 0.000003 0.000000 0.000000 -0.000000 2.490092 -6.094539 -35.392852 -63.972412 33.630731 7.079515 -24.776935 22.588496 -0.847463 11.676257 7.518025 6.413605 -17.301684 6.438992 -26.415046 3.056119 -20.348435 1.161296 -0.000001 -0.000001 -0.000000 -8.187151 4.699999 83.323882 -5.507075 0.854100 81.300302 0.000001 -0.000000 0.000002 -13.070149 1.838116 86.568270 -5.604635 1.089751 83.625407 0.000000 -0.000000 0.000003 -13.632593 -7.090518 77.490122 -0.180614 7.078952 77.198459 0.000001 0.000000 0.000000 -17.876757 -11.653732 76.473311 1.103603 11.872886 72.981528 0.000001 -0.000004 -0.000000 0.000000 -0.000000 -0.000000 -0.000000 -0.000000 -0.000000 -0.000000 -0.000000 -0.000000 -0.000000 -0.000000 -0.000000 -0.000000 -0.000000 -0.000000 -0.000000 -0.000000 -0.000000 -0.000000 -0.000000 0.000000 -0.000000 -0.000000 -0.000000 -0.000000 -0.000000 -0.000000 -0.000000 -0.000000 0.000000 -0.000001 -0.000000 -0.000000 -0.000001 -0.000000 -0.000000 -0.000000 -0.000000 0.000000 
0.721607 117.128860 -0.524901 -0.254323 0.114078 0.272661 0.000000 -0.000000 0.000000 -29.754681 8.242519 1.177020 48.756851 -0.954116 0.524627 30.919846 2.463228 -1.857264 0.000001 0.000001 -0.000001 0.000001 0.000001 -0.000001 -0.000000 0.000000 -0.000000 -13.717986 -7.506293 -7.701649 45.966388 -9.794594 5.109661 29.177885 1.666571 13.061951 0.000003 0.000002 -0.000003 0.000003 0.000002 -0.000003 0.000000 -0.000003 0.000001 -2.550663 0.541448 0.184067 -5.097276 1.039579 -0.044115 -5.097281 1.039580 -0.044115 -29.440919 0.570003 -3.397076 -5.910945 -1.569223 4.078034 -0.000000 -0.000000 -0.000000 -0.000000 -0.000000 -0.000000 -0.000000 -0.000000 -0.000000 8.458166 7.825094 32.740737 -62.473862 -34.058827 -5.800703 -27.569524 -32.988847 6.946104 5.686070 2.103954 -3.638418 -23.494010 8.736945 4.107998 -11.816696 8.166778 13.634035 -0.000000 -0.000001 -0.000001 -0.799346 -9.947586 -74.043574 -8.752826 -2.825424 -82.635139 -0.000001 0.000001 0.000000 -7.065397 -4.107968 -72.618844 -5.079114 -4.494241 -69.992152 -0.000001 -0.000002 -0.000004 -10.885394 6.238528 -70.827334 -0.413268 -6.821999 -77.537605 0.000000 0.000001 -0.000006 -15.094184 6.352028 -69.045440 0.827625 -8.184745 -68.724749 -0.000000 0.000003 0.000000 -0.000000 -0.000000 -0.000000 2.587533 -5.828013 -35.023967 -64.095253 32.796314 6.908423 -24.852728 25.024785 -1.814137 12.403240 6.558997 8.612012 -17.355019 6.501265 -26.748641 3.032338 -20.314591 1.148220 -0.000001 0.000002 0.000001 -8.192452 4.702474 83.357999 -5.496464 0.854965 81.191859 0.000001 0.000001 0.000000 -13.143522 1.854606 86.740124 -5.630813 1.088580 83.913840 -0.000000 0.000000 -0.000000 -13.683645 -7.094166 77.835927 -0.209468 7.096351 77.666306 -0.000001 -0.000000 0.000002 -18.013922 -11.684620 77.021291 1.079826 11.901437 73.508162 0.000000 -0.000001 -0.000000 -0.000002 0.000000 -0.000000 -0.000000 -0.000000 -0.000000 -0.000000 -0.000000 -0.000000 -0.000000 -0.000000 -0.000000 -0.000000 -0.000000 -0.000000 -0.000000 -0.000000 -0.000000 -0.000000 -0.000000 -0.000000 -0.000000 -0.000000 -0.000000 -0.000000 -0.000000 -0.000000 -0.000000 -0.000000 -0.000000 -0.000002 -0.000000 0.000000 -0.000002 -0.000000 0.000000 0.000000 -0.000000 0.000000 
